<?xml version="1.0" encoding="utf-8"?>
<!-- Generator: Adobe Illustrator 21.1.0, SVG Export Plug-In . SVG Version: 6.00 Build 0)  -->
<svg version="1.1" id="Layer_1" xmlns="http://www.w3.org/2000/svg" xmlns:xlink="http://www.w3.org/1999/xlink" x="0px" y="0px"
	 viewBox="0 0 657 615" style="enable-background:new 0 0 657 615;" xml:space="preserve">
<style type="text/css">
	.st0{fill:#F9F9F9;}
	.st1{font-family:'Roboto-Black';}
	.st2{font-size:107.8597px;}
	.st3{font-size:60.4023px;}
	.st4{font-size:42.4758px;}
</style>
<g>
	<text transform="matrix(1 0 0 0.9 70.0648 453.7729)" class="st0 st1 st2">HOSPITAL</text>
	<text transform="matrix(0.9963 0 0 0.91 72.4437 509.9624)" class="st0 st1 st3">LA MISERICORDIA</text>
	<text transform="matrix(0.9839 0 0 0.87 439.2601 556.9858)" class="st0 st1 st4">Calarcá</text>
	<text transform="matrix(0.9839 0 0 0.87 72.4437 368.418)" class="st0 st1 st4">ESE</text>
	<g>
		<path class="st0" d="M222,116.8c0,0-32.8-24.2-32.8-24.2c-3.6-2.5-11.9-8.9-15.4-5.1c-9.2,10,38.4,58.2,38.3,58.5
			c-0.4,1.1-1.6,1.3-2.6,1.3c-1-0.1-3.1-0.7-3.9-1.4c0,0-24.6-19.4-49.2-48.4c-2.2-2.6-13.2-13.7-16.4-14.5
			c-4.3-1.1-6.7,3.6-6.4,8.2c0.7,12.5,10,26.1,16.2,35.7c8.7,13.5,36.4,48.2,35.7,48.9c-0.6,0.6-1.5,0.7-2.2,0.4
			c-3.8-1.3-7.7-5-10.8-7.8c-3.7-3.4-7.2-7.1-10.7-10.7c-7.5-7.4-32-37.4-38.5-42.6c-2.6-2.1-8.8-6.9-11.8-3
			c-5.3,6.8,0.1,18.2,3.3,24.8c7.2,14.7,39.8,54.5,45.9,62.3c1.1,1.4,1.5,2.9,0,4.2c-0.7,0.6-3.2,1-4.1,0.7
			c-12.3-4.8-33.3-33.4-38.6-36.1c-6.7-3.4-11.7-2.9-10.7,7.1c8.2,77.4,104.2,135.5,155.8,135.5c15.9,0,32.2-3.3,46.6-11.4
			c11.9-6.6,22.5-17,28.6-30.7c6.1-13.7,7.2-30.9,1.3-44.7c-1.8-4.3-4.4-9.2-2.6-13.5c1.9-4.8,8.1-5,11.5-1.6
			c3.4,3.4,4.7,8.9,5.3,14.1c3.3,26.6-4.6,55.7-21.7,73.7c-2.9,3-6,5.8-9.3,8.3c-55.7,42.6-137.1,19-186.1-27.4
			c-14.3-13.5-27.2-27.8-37.4-45.9c-9.8-17.4-16.8-37-20.1-57.6c-4.6-28.4-4.5-59.3,12-82.6c18.1-25.7,47.2-32.9,73.5-22.8
			c9.1,3.5,16.5,8.5,24.5,14.6C203.9,93.9,221.2,115.2,222,116.8z"/>
		<path class="st0" d="M263.1,141c0,0,18.6,21.9,36.3,33.5c4.9,3.2,9.4,5.2,12.9,5.2c0,0,8.2,0,4.1-9.7c-0.7-1.6-16.4-29-44.3-49
			c-3.5-2.5-7.6-4-11.8-4.3c-9.9-0.8-18.7,8.3-21.1,19.4c-2.2,10.4,1.3,23.7,5.1,33c5.6,13.8,15,25,25.6,33.7
			c0.4,0.4,5,15.2,5.5,15.6c0,0,0,14.5,8.2,24.2l0-43.6c-5.9-4.6-12.3-8.2-17-14.7c-6.9-9.6-9.2-22.1-8.7-34.4
			C258,147,262.1,140,263.1,141z"/>
		<path class="st0" d="M316.4,228.1c0,0,0,29,0,48.4c0,0-12.3-4.8-12.3-43.6c0,0,20.5-72.6,90.2-121c6.4-4.5,14.1,3.4,17.2,9.2
			c3.9,7.5,5.2,16.8,4.7,25.5c-1.3,22.1-13.1,47.6-30.1,57.2c0,19.4-5.2,28.1-12.3,38.7c0,0,0-33.7,0-48.4c0-4.8,7.1-3.4,12.3-9.7
			c4.6-5.5,13.6-20.7,14-28.4c0.3-5.1,1.6-16.1-1.7-20C398.4,136.2,324.6,189.4,316.4,228.1z"/>
		<path class="st0" d="M178.1,138.4"/>
		<path class="st0" d="M565.5,91.2c-18.1-25.7-47.2-32.9-73.5-22.8c-9.1,3.5-16.5,8.5-24.5,14.6c-14.6,10.9-32,32.3-32.8,33.9
			c0,0,32.8-24.2,32.8-24.2c3.6-2.5,11.9-8.9,15.4-5.1c9.2,10-38.4,58.2-38.3,58.5c0.4,1.1,1.6,1.3,2.6,1.3c1-0.1,3.1-0.7,3.9-1.4
			c0,0,24.6-19.4,49.2-48.4c2.2-2.6,13.2-13.7,16.4-14.5c4.3-1.1,6.7,3.6,6.4,8.2c-0.7,12.5-10,26.1-16.2,35.7
			c-8.7,13.5-36.4,48.2-35.7,48.9c0.6,0.6,1.5,0.7,2.2,0.4c3.8-1.3,7.7-5,10.8-7.8c3.7-3.4,7.2-7.1,10.7-10.7
			c7.5-7.4,32-37.4,38.5-42.6c2.6-2.1,8.8-6.9,11.8-3c5.3,6.8-0.1,18.2-3.3,24.8c-7.2,14.7-39.8,54.5-45.9,62.3
			c-1.1,1.4-1.5,2.9,0,4.2c0.7,0.6,3.2,1,4.1,0.7c12.3-4.8,33.3-33.4,38.6-36.1c6.7-3.4,11.7-2.9,10.7,7.1
			c-8.2,77.4-104.2,135.5-155.8,135.5c-13.2,0-26.6-2.3-39.1-7.7v0c-10-1.9-14.5,2.1-16.4,5c55.5,38.3,134.1,14.7,181.8-30.4
			c14.3-13.5,27.2-27.8,37.4-45.9c9.8-17.4,16.8-37,20.1-57.6C582.1,145.4,582,114.5,565.5,91.2z"/>
		<path class="st0" d="M370.4,79.3c-4.2-6-11-7.7-17.1-5.3c-2.1,0.8-3.8,2-5.7,3.4c-2.9,2.1-5.3,4.9-7.5,8
			c-2.7,3.8-5.1,8.1-7.3,12.5c-2.2-4.3-4.5-8.6-7.3-12.5c-2.2-3.1-4.7-5.8-7.5-8c-1.9-1.4-3.6-2.6-5.7-3.4
			c-6.1-2.4-12.9-0.7-17.1,5.3c-3.8,5.4-3.9,12.6-2.8,19.2c0.8,4.8,2.4,9.3,4.7,13.4c2.4,4.2,5.4,7.5,8.7,10.7
			c5.2,4.9,12,8.7,19,10.5c2.6,0.7,5.3,1.1,8,1.1c2.7,0,5.4-0.3,8-1.1c7-1.8,13.8-5.6,19-10.5c3.3-3.1,6.3-6.5,8.7-10.7
			c2.3-4.1,3.9-8.6,4.7-13.4C374.2,91.9,374.2,84.7,370.4,79.3z"/>
	</g>
</g>
</svg>
